<svg width="150" height="150" viewBox="0 0 150 150" fill="none" xmlns="http://www.w3.org/2000/svg">
<g filter="url(#filter0_d_161_1324)">
<path d="M119.607 62.6592C119.903 60.998 120.058 59.289 120.058 57.5448C120.058 41.2277 106.538 28 89.8595 28C77.4607 28 66.8072 35.3105 62.1564 45.7661C58.3888 42.5836 53.4997 40.6621 48.157 40.6621C36.2441 40.6621 26.5868 50.2154 26.5868 62C26.5868 62.6562 26.6167 63.3055 26.6753 63.9466C20.9454 66.6925 17 72.4541 17 79.1172C17 88.4413 24.7259 96 34.2562 96H115.744C125.274 96 133 88.4413 133 79.1172C133 71.0925 127.277 64.3755 119.607 62.6592Z" fill="url(#paint0_linear_161_1324)"/>
</g>
<g filter="url(#filter1_d_161_1324)">
<path d="M101.84 97.5041C102.065 96.2337 102.182 94.9269 102.182 93.5931C102.182 81.1153 91.9251 71 79.2727 71C69.8668 71 61.7848 76.5904 58.2566 84.5858C55.3984 82.1521 51.6895 80.6828 47.6364 80.6828C38.599 80.6828 31.2727 87.9882 31.2727 97C31.2727 97.5018 31.2954 97.9983 31.3399 98.4886C26.9931 100.588 24 104.994 24 110.09C24 117.22 29.861 123 37.0909 123H98.9091C106.139 123 112 117.22 112 110.09C112 103.953 107.659 98.8166 101.84 97.5041Z" fill="url(#paint1_linear_161_1324)"/>
</g>
<defs>
<filter id="filter0_d_161_1324" x="7" y="18" width="136" height="88" filterUnits="userSpaceOnUse" color-interpolation-filters="sRGB">
<feFlood flood-opacity="0" result="BackgroundImageFix"/>
<feColorMatrix in="SourceAlpha" type="matrix" values="0 0 0 0 0 0 0 0 0 0 0 0 0 0 0 0 0 0 127 0" result="hardAlpha"/>
<feOffset/>
<feGaussianBlur stdDeviation="5"/>
<feColorMatrix type="matrix" values="0 0 0 0 0.445068 0 0 0 0 0.445068 0 0 0 0 0.445068 0 0 0 1 0"/>
<feBlend mode="normal" in2="BackgroundImageFix" result="effect1_dropShadow_161_1324"/>
<feBlend mode="normal" in="SourceGraphic" in2="effect1_dropShadow_161_1324" result="shape"/>
</filter>
<filter id="filter1_d_161_1324" x="14" y="61" width="108" height="72" filterUnits="userSpaceOnUse" color-interpolation-filters="sRGB">
<feFlood flood-opacity="0" result="BackgroundImageFix"/>
<feColorMatrix in="SourceAlpha" type="matrix" values="0 0 0 0 0 0 0 0 0 0 0 0 0 0 0 0 0 0 127 0" result="hardAlpha"/>
<feOffset/>
<feGaussianBlur stdDeviation="5"/>
<feColorMatrix type="matrix" values="0 0 0 0 0.445068 0 0 0 0 0.445068 0 0 0 0 0.445068 0 0 0 1 0"/>
<feBlend mode="normal" in2="BackgroundImageFix" result="effect1_dropShadow_161_1324"/>
<feBlend mode="normal" in="SourceGraphic" in2="effect1_dropShadow_161_1324" result="shape"/>
</filter>
<linearGradient id="paint0_linear_161_1324" x1="48.2745" y1="113.567" x2="100.214" y2="31.3818" gradientUnits="userSpaceOnUse">
<stop stop-color="#3C3C3C" stop-opacity="0.95"/>
<stop offset="1" stop-color="#ACA5A5" stop-opacity="0.58"/>
</linearGradient>
<linearGradient id="paint1_linear_161_1324" x1="47.7255" y1="136.433" x2="87.5791" y2="73.8737" gradientUnits="userSpaceOnUse">
<stop stop-color="#3C3C3C" stop-opacity="0.95"/>
<stop offset="1" stop-color="#ACA5A5" stop-opacity="0.58"/>
</linearGradient>
</defs>
</svg>
