<svg width="150" height="150" viewBox="0 0 150 150" fill="none" xmlns="http://www.w3.org/2000/svg">
<g filter="url(#filter0_d_161_1324)">
<path d="M89.4375 43.6467C91.3234 42.1334 91.6416 39.3571 90.1488 37.4457C88.656 35.5343 85.9171 35.2115 84.0318 36.7247L89.4375 43.6467ZM72.2971 46.1419C70.4112 47.6552 70.093 50.4314 71.5859 52.3428C73.0787 54.2543 75.8175 54.5771 77.7029 53.0638L72.2971 46.1419ZM72.2971 53.0638C74.1825 54.5771 76.9213 54.2543 78.4141 52.3428C79.9069 50.4314 79.5888 47.6552 77.7029 46.1419L72.2971 53.0638ZM65.9682 36.7247C64.0829 35.2115 61.3439 35.5343 59.851 37.4457C58.3582 39.3571 58.6766 42.1334 60.5623 43.6467L65.9682 36.7247ZM70.6452 49.6029C70.6452 52.0408 72.595 54.0171 75 54.0171C77.405 54.0171 79.3548 52.0408 79.3548 49.6029H70.6452ZM79.3548 28.4143C79.3548 25.9764 77.405 24 75 24C72.595 24 70.6452 25.9764 70.6452 28.4143H79.3548ZM79.3548 49.6029C79.3548 47.1649 77.405 45.1886 75 45.1886C72.595 45.1886 70.6452 47.1649 70.6452 49.6029H79.3548ZM70.6452 101.397C70.6452 103.835 72.595 105.811 75 105.811C77.405 105.811 79.3548 103.835 79.3548 101.397H70.6452ZM60.5623 107.353C58.6766 108.867 58.3582 111.643 59.851 113.554C61.3439 115.466 64.0829 115.788 65.9682 114.275L60.5623 107.353ZM77.7029 104.858C79.5888 103.345 79.9069 100.568 78.4141 98.6573C76.9213 96.7457 74.1825 96.4231 72.2971 97.9363L77.7029 104.858ZM77.7029 97.9363C75.8175 96.4231 73.0787 96.7457 71.5859 98.6573C70.093 100.568 70.4112 103.345 72.2971 104.858L77.7029 97.9363ZM84.0318 114.275C85.9171 115.788 88.656 115.466 90.1488 113.554C91.6416 111.643 91.3234 108.867 89.4375 107.353L84.0318 114.275ZM79.3548 101.397C79.3548 98.9593 77.405 96.9829 75 96.9829C72.595 96.9829 70.6452 98.9593 70.6452 101.397H79.3548ZM70.6452 122.586C70.6452 125.024 72.595 127 75 127C77.405 127 79.3548 125.024 79.3548 122.586H70.6452ZM40.2229 78.846C37.9798 77.9667 35.4581 79.0973 34.5906 81.371C33.7231 83.6447 34.8383 86.2008 37.0815 87.0801L40.2229 78.846ZM51.0748 92.5656C53.318 93.445 55.8397 92.3143 56.7071 90.0407C57.5747 87.767 56.4594 85.2108 54.2163 84.3315L51.0748 92.5656ZM56.9495 89.1207C57.3157 86.7111 55.6855 84.4569 53.3084 84.0855C50.9314 83.7147 48.7077 85.3668 48.3415 87.7764L56.9495 89.1207ZM46.077 102.679C45.7109 105.089 47.3411 107.343 49.7181 107.714C52.0951 108.085 54.3189 106.433 54.6851 104.023L46.077 102.679ZM54.8061 92.2813C56.8943 91.0718 57.6198 88.375 56.4265 86.2585C55.2332 84.142 52.5731 83.4063 50.485 84.6158L54.8061 92.2813ZM32.195 95.2101C30.1068 96.4196 29.3813 99.1164 30.5745 101.233C31.7678 103.349 34.4279 104.085 36.516 102.876L32.195 95.2101ZM50.485 84.6158C48.3968 85.8253 47.6713 88.5221 48.8645 90.6386C50.0578 92.7551 52.7179 93.4909 54.8061 92.2813L50.485 84.6158ZM99.515 66.3842C101.603 65.1747 102.329 62.478 101.136 60.3614C99.9424 58.2446 97.2819 57.5092 95.1939 58.7188L99.515 66.3842ZM109.777 72.154C112.02 73.0333 114.542 71.9026 115.409 69.629C116.277 67.3553 115.161 64.7992 112.918 63.9199L109.777 72.154ZM98.9251 58.4343C96.6821 57.5549 94.1604 58.6854 93.2929 60.9592C92.4255 63.2331 93.5409 65.7892 95.7838 66.6685L98.9251 58.4343ZM93.0502 61.8794C92.6844 64.2889 94.3143 66.5431 96.6914 66.9145C99.0685 67.2853 101.292 65.6332 101.659 63.2235L93.0502 61.8794ZM103.923 48.3208C104.289 45.9113 102.659 43.6571 100.282 43.286C97.9049 42.9148 95.6811 44.5673 95.3147 46.9768L103.923 48.3208ZM95.1939 58.7188C93.106 59.9283 92.3802 62.6248 93.5734 64.7415C94.7666 66.858 97.427 67.5937 99.515 66.3842L95.1939 58.7188ZM117.805 55.7898C119.893 54.5802 120.619 51.8837 119.426 49.7671C118.232 47.6503 115.572 46.9149 113.484 48.1245L117.805 55.7898ZM37.0815 63.9199C34.8383 64.7992 33.7231 67.3553 34.5906 69.629C35.4581 71.9026 37.9798 73.0333 40.2229 72.154L37.0815 63.9199ZM54.2163 66.6685C56.4594 65.7892 57.5747 63.2331 56.7071 60.9592C55.8397 58.6854 53.318 57.5549 51.0748 58.4343L54.2163 66.6685ZM48.3415 63.2235C48.7077 65.6332 50.9314 67.2853 53.3084 66.9145C55.6855 66.5431 57.3157 64.2889 56.9495 61.8794L48.3415 63.2235ZM54.6851 46.9768C54.3189 44.5673 52.0951 42.9148 49.7181 43.286C47.3411 43.6571 45.7109 45.9113 46.077 48.3208L54.6851 46.9768ZM50.485 66.3842C52.5731 67.5937 55.2332 66.858 56.4265 64.7415C57.6198 62.6248 56.8943 59.9283 54.8061 58.7188L50.485 66.3842ZM36.516 48.1245C34.4279 46.9149 31.7678 47.6503 30.5745 49.7671C29.3813 51.8837 30.1068 54.5802 32.195 55.7898L36.516 48.1245ZM54.8061 58.7188C52.7179 57.5092 50.0578 58.2446 48.8645 60.3614C47.6713 62.478 48.3968 65.1747 50.485 66.3842L54.8061 58.7188ZM95.1939 92.2813C97.2819 93.4909 99.9424 92.7551 101.136 90.6386C102.329 88.5221 101.603 85.8253 99.515 84.6158L95.1939 92.2813ZM112.918 87.0801C115.161 86.2008 116.277 83.6447 115.409 81.371C114.542 79.0973 112.02 77.9667 109.777 78.846L112.918 87.0801ZM95.7838 84.3315C93.5409 85.2108 92.4255 87.767 93.2929 90.0407C94.1604 92.3143 96.6821 93.445 98.9251 92.5656L95.7838 84.3315ZM101.659 87.7764C101.292 85.3668 99.0685 83.7147 96.6914 84.0855C94.3143 84.4569 92.6844 86.7111 93.0502 89.1207L101.659 87.7764ZM95.3147 104.023C95.6811 106.433 97.9049 108.085 100.282 107.714C102.659 107.343 104.289 105.089 103.923 102.679L95.3147 104.023ZM99.515 84.6158C97.427 83.4063 94.7666 84.142 93.5734 86.2585C92.3802 88.375 93.106 91.0718 95.1939 92.2813L99.515 84.6158ZM113.484 102.876C115.572 104.085 118.232 103.349 119.426 101.233C120.619 99.1164 119.893 96.4196 117.805 95.2101L113.484 102.876ZM84.0318 36.7247L72.2971 46.1419L77.7029 53.0638L89.4375 43.6467L84.0318 36.7247ZM77.7029 46.1419L65.9682 36.7247L60.5623 43.6467L72.2971 53.0638L77.7029 46.1419ZM79.3548 49.6029V28.4143H70.6452V49.6029H79.3548ZM70.6452 49.6029V101.397H79.3548V49.6029H70.6452ZM65.9682 114.275L77.7029 104.858L72.2971 97.9363L60.5623 107.353L65.9682 114.275ZM72.2971 104.858L84.0318 114.275L89.4375 107.353L77.7029 97.9363L72.2971 104.858ZM70.6452 101.397V122.586H79.3548V101.397H70.6452ZM37.0815 87.0801L51.0748 92.5656L54.2163 84.3315L40.2229 78.846L37.0815 87.0801ZM48.3415 87.7764L46.077 102.679L54.6851 104.023L56.9495 89.1207L48.3415 87.7764ZM50.485 84.6158L32.195 95.2101L36.516 102.876L54.8061 92.2813L50.485 84.6158ZM54.8061 92.2813L99.515 66.3842L95.1939 58.7188L50.485 84.6158L54.8061 92.2813ZM112.918 63.9199L98.9251 58.4343L95.7838 66.6685L109.777 72.154L112.918 63.9199ZM101.659 63.2235L103.923 48.3208L95.3147 46.9768L93.0502 61.8794L101.659 63.2235ZM99.515 66.3842L117.805 55.7898L113.484 48.1245L95.1939 58.7188L99.515 66.3842ZM40.2229 72.154L54.2163 66.6685L51.0748 58.4343L37.0815 63.9199L40.2229 72.154ZM56.9495 61.8794L54.6851 46.9768L46.077 48.3208L48.3415 63.2235L56.9495 61.8794ZM54.8061 58.7188L36.516 48.1245L32.195 55.7898L50.485 66.3842L54.8061 58.7188ZM50.485 66.3842L95.1939 92.2813L99.515 84.6158L54.8061 58.7188L50.485 66.3842ZM109.777 78.846L95.7838 84.3315L98.9251 92.5656L112.918 87.0801L109.777 78.846ZM93.0502 89.1207L95.3147 104.023L103.923 102.679L101.659 87.7764L93.0502 89.1207ZM95.1939 92.2813L113.484 102.876L117.805 95.2101L99.515 84.6158L95.1939 92.2813Z" fill="url(#paint0_linear_161_1324)"/>
</g>
<defs>
<filter id="filter0_d_161_1324" x="24" y="18" width="102" height="115" filterUnits="userSpaceOnUse" color-interpolation-filters="sRGB">
<feFlood flood-opacity="0" result="BackgroundImageFix"/>
<feColorMatrix in="SourceAlpha" type="matrix" values="0 0 0 0 0 0 0 0 0 0 0 0 0 0 0 0 0 0 127 0" result="hardAlpha"/>
<feOffset/>
<feGaussianBlur stdDeviation="3"/>
<feComposite in2="hardAlpha" operator="out"/>
<feColorMatrix type="matrix" values="0 0 0 0 0.622145 0 0 0 0 0.954657 0 0 0 0 1 0 0 0 1 0"/>
<feBlend mode="normal" in2="BackgroundImageFix" result="effect1_dropShadow_161_1324"/>
<feBlend mode="normal" in="SourceGraphic" in2="effect1_dropShadow_161_1324" result="shape"/>
</filter>
<linearGradient id="paint0_linear_161_1324" x1="89.3044" y1="36.6777" x2="51.525" y2="127.058" gradientUnits="userSpaceOnUse">
<stop stop-color="white"/>
<stop offset="1" stop-color="#9BFAFC"/>
</linearGradient>
</defs>
</svg>
