<svg width="150" height="150" viewBox="0 0 150 150" fill="none" xmlns="http://www.w3.org/2000/svg">
<g clip-path="url(#clip0_161_1324)">
<g filter="url(#filter0_f_161_1324)">
<path d="M92.1909 21.6282C84.0912 32.6253 82.6867 47.6335 89.8318 60.0091C96.9768 72.3847 110.677 78.6725 124.25 77.1566C121.364 81.0752 117.628 84.4845 113.125 87.084C95.9874 96.9786 74.2382 91.3925 64.5472 74.6072C54.8561 57.8218 60.8931 36.1934 78.0311 26.2988C82.5335 23.6993 87.3542 22.1683 92.1909 21.6282Z" fill="white"/>
</g>
<g filter="url(#filter1_i_161_1324)">
<path d="M91.4356 26.2627C84.0419 36.3013 82.7598 50.0013 89.2821 61.2981C95.8043 72.595 108.31 78.3347 120.7 76.9509C118.066 80.5279 114.655 83.64 110.545 86.0129C94.9012 95.0451 75.0478 89.946 66.2015 74.6237C57.3552 59.3015 62.8659 39.5584 78.51 30.5262C82.62 28.1533 87.0205 26.7558 91.4356 26.2627Z" fill="url(#paint0_linear_161_1324)"/>
</g>
<g filter="url(#filter2_d_161_1324)">
<path d="M93.8789 88.4459C94.0807 87.3222 94.186 86.1661 94.186 84.9862C94.186 73.9481 84.9782 65 73.6198 65C65.1759 65 57.9204 69.9453 54.7531 77.0182C52.1872 74.8654 48.8576 73.5655 45.219 73.5655C37.1059 73.5655 30.5289 80.0281 30.5289 88C30.5289 88.4439 30.5493 88.8831 30.5892 89.3168C26.687 91.1743 24 95.0719 24 99.5793C24 105.887 29.2616 111 35.7521 111H91.2479C97.7384 111 103 105.887 103 99.5793C103 94.1508 99.1027 89.607 93.8789 88.4459Z" fill="url(#paint1_linear_161_1324)"/>
</g>
</g>
<defs>
<filter id="filter0_f_161_1324" x="34.9233" y="-3.37183" width="114.327" height="120.349" filterUnits="userSpaceOnUse" color-interpolation-filters="sRGB">
<feFlood flood-opacity="0" result="BackgroundImageFix"/>
<feBlend mode="normal" in="SourceGraphic" in2="BackgroundImageFix" result="shape"/>
<feGaussianBlur stdDeviation="12.5" result="effect1_foregroundBlur_161_1324"/>
</filter>
<filter id="filter1_i_161_1324" x="61.9807" y="26.2627" width="58.7197" height="68.2168" filterUnits="userSpaceOnUse" color-interpolation-filters="sRGB">
<feFlood flood-opacity="0" result="BackgroundImageFix"/>
<feBlend mode="normal" in="SourceGraphic" in2="BackgroundImageFix" result="shape"/>
<feColorMatrix in="SourceAlpha" type="matrix" values="0 0 0 0 0 0 0 0 0 0 0 0 0 0 0 0 0 0 127 0" result="hardAlpha"/>
<feOffset dy="4"/>
<feGaussianBlur stdDeviation="4"/>
<feComposite in2="hardAlpha" operator="arithmetic" k2="-1" k3="1"/>
<feColorMatrix type="matrix" values="0 0 0 0 1 0 0 0 0 1 0 0 0 0 1 0 0 0 0.55 0"/>
<feBlend mode="normal" in2="shape" result="effect1_innerShadow_161_1324"/>
</filter>
<filter id="filter2_d_161_1324" x="14" y="55" width="99" height="66" filterUnits="userSpaceOnUse" color-interpolation-filters="sRGB">
<feFlood flood-opacity="0" result="BackgroundImageFix"/>
<feColorMatrix in="SourceAlpha" type="matrix" values="0 0 0 0 0 0 0 0 0 0 0 0 0 0 0 0 0 0 127 0" result="hardAlpha"/>
<feOffset/>
<feGaussianBlur stdDeviation="5"/>
<feColorMatrix type="matrix" values="0 0 0 0 0.891583 0 0 0 0 0.891583 0 0 0 0 0.891583 0 0 0 1 0"/>
<feBlend mode="normal" in2="BackgroundImageFix" result="effect1_dropShadow_161_1324"/>
<feBlend mode="normal" in="SourceGraphic" in2="effect1_dropShadow_161_1324" result="shape"/>
</filter>
<linearGradient id="paint0_linear_161_1324" x1="93.0456" y1="20.9389" x2="81.3078" y2="92.0111" gradientUnits="userSpaceOnUse">
<stop stop-color="white"/>
<stop offset="1" stop-color="#686868"/>
</linearGradient>
<linearGradient id="paint1_linear_161_1324" x1="10.2811" y1="79.1064" x2="88.8684" y2="19.1914" gradientUnits="userSpaceOnUse">
<stop stop-color="white" stop-opacity="0.9"/>
<stop offset="1" stop-color="white" stop-opacity="0.45"/>
</linearGradient>
<clipPath id="clip0_161_1324">
<rect width="150" height="150" fill="white"/>
</clipPath>
</defs>
</svg>
