<svg width="131" height="138" viewBox="0 0 131 138" fill="none" xmlns="http://www.w3.org/2000/svg">
<g filter="url(#filter0_f_161_1041)">
<path d="M65.2259 25.2701C55.1484 38.9526 53.4009 57.6256 62.2907 73.0231C71.1804 88.4207 88.2255 96.2438 105.114 94.3577C101.523 99.2332 96.8742 103.475 91.2723 106.709C69.9495 119.02 42.8894 112.07 30.8319 91.1859C18.7745 70.3017 26.2856 43.392 47.6084 31.0812C53.2103 27.847 59.2081 25.9422 65.2259 25.2701Z" fill="white"/>
</g>
<g filter="url(#filter1_i_161_1041)">
<path d="M64.2862 31.036C55.0872 43.5259 53.492 60.5712 61.6069 74.6266C69.7218 88.682 85.281 95.8232 100.697 94.1015C97.4192 98.552 93.1759 102.424 88.0623 105.376C68.5981 116.614 43.8968 110.27 32.8903 91.2061C21.8839 72.1424 28.7403 47.5783 48.2045 36.3406C53.318 33.3883 58.793 31.6495 64.2862 31.036Z" fill="url(#paint0_linear_161_1041)"/>
</g>
<defs>
<filter id="filter0_f_161_1041" x="0.0788574" y="0.27002" width="130.035" height="137.527" filterUnits="userSpaceOnUse" color-interpolation-filters="sRGB">
<feFlood flood-opacity="0" result="BackgroundImageFix"/>
<feBlend mode="normal" in="SourceGraphic" in2="BackgroundImageFix" result="shape"/>
<feGaussianBlur stdDeviation="12.5" result="effect1_foregroundBlur_161_1041"/>
</filter>
<filter id="filter1_i_161_1041" x="27.6389" y="31.0361" width="73.0581" height="83.8975" filterUnits="userSpaceOnUse" color-interpolation-filters="sRGB">
<feFlood flood-opacity="0" result="BackgroundImageFix"/>
<feBlend mode="normal" in="SourceGraphic" in2="BackgroundImageFix" result="shape"/>
<feColorMatrix in="SourceAlpha" type="matrix" values="0 0 0 0 0 0 0 0 0 0 0 0 0 0 0 0 0 0 127 0" result="hardAlpha"/>
<feOffset dy="4"/>
<feGaussianBlur stdDeviation="4"/>
<feComposite in2="hardAlpha" operator="arithmetic" k2="-1" k3="1"/>
<feColorMatrix type="matrix" values="0 0 0 0 1 0 0 0 0 1 0 0 0 0 1 0 0 0 0.55 0"/>
<feBlend mode="normal" in2="shape" result="effect1_innerShadow_161_1041"/>
</filter>
<linearGradient id="paint0_linear_161_1041" x1="66.2894" y1="24.4123" x2="51.6855" y2="112.839" gradientUnits="userSpaceOnUse">
<stop stop-color="white"/>
<stop offset="1" stop-color="#686868"/>
</linearGradient>
</defs>
</svg>
