<svg width="150" height="150" viewBox="0 0 150 150" fill="none" xmlns="http://www.w3.org/2000/svg">
<g filter="url(#filter0_d_161_1324)">
<path d="M99.1471 58.0332C99.3872 56.6895 99.5124 55.3073 99.5124 53.8966C99.5124 40.6988 88.5563 30 75.0413 30C64.9941 30 56.361 35.9129 52.5923 44.3696C49.5392 41.7955 45.5774 40.2414 41.2479 40.2414C31.5944 40.2414 23.7686 47.9683 23.7686 57.5C23.7686 58.0308 23.7929 58.5559 23.8404 59.0745C19.1972 61.2954 16 65.9555 16 71.3448C16 78.8864 22.2606 85 29.9835 85H96.0165C103.739 85 110 78.8864 110 71.3448C110 64.8543 105.363 59.4214 99.1471 58.0332Z" fill="url(#paint0_linear_161_1324)"/>
</g>
<g filter="url(#filter1_d_161_1324)">
<path d="M123.223 91.5816C123.484 90.1159 123.62 88.608 123.62 87.069C123.62 72.6715 111.731 61 97.0661 61C86.1638 61 76.796 67.4504 72.7065 76.676C69.3936 73.8679 65.0946 72.1724 60.3967 72.1724C49.9215 72.1724 41.4297 80.6018 41.4297 91C41.4297 91.579 41.4561 92.1519 41.5076 92.7176C36.4693 95.1404 33 100.224 33 106.103C33 114.331 39.7934 121 48.1735 121H119.826C128.207 121 135 114.331 135 106.103C135 99.0228 129.968 93.096 123.223 91.5816Z" fill="url(#paint1_linear_161_1324)"/>
</g>
<defs>
<filter id="filter0_d_161_1324" x="6" y="20" width="114" height="75" filterUnits="userSpaceOnUse" color-interpolation-filters="sRGB">
<feFlood flood-opacity="0" result="BackgroundImageFix"/>
<feColorMatrix in="SourceAlpha" type="matrix" values="0 0 0 0 0 0 0 0 0 0 0 0 0 0 0 0 0 0 127 0" result="hardAlpha"/>
<feOffset/>
<feGaussianBlur stdDeviation="5"/>
<feColorMatrix type="matrix" values="0 0 0 0 0.940661 0 0 0 0 0.931077 0 0 0 0 1 0 0 0 1 0"/>
<feBlend mode="normal" in2="BackgroundImageFix" result="effect1_dropShadow_161_1324"/>
<feBlend mode="normal" in="SourceGraphic" in2="effect1_dropShadow_161_1324" result="shape"/>
</filter>
<filter id="filter1_d_161_1324" x="23" y="51" width="122" height="80" filterUnits="userSpaceOnUse" color-interpolation-filters="sRGB">
<feFlood flood-opacity="0" result="BackgroundImageFix"/>
<feColorMatrix in="SourceAlpha" type="matrix" values="0 0 0 0 0 0 0 0 0 0 0 0 0 0 0 0 0 0 127 0" result="hardAlpha"/>
<feOffset/>
<feGaussianBlur stdDeviation="5"/>
<feColorMatrix type="matrix" values="0 0 0 0 0.822491 0 0 0 0 0.822491 0 0 0 0 0.822491 0 0 0 1 0"/>
<feBlend mode="normal" in2="BackgroundImageFix" result="effect1_dropShadow_161_1324"/>
<feBlend mode="normal" in="SourceGraphic" in2="effect1_dropShadow_161_1324" result="shape"/>
</filter>
<linearGradient id="paint0_linear_161_1324" x1="-0.323751" y1="46.8664" x2="93.5178" y2="-24.3328" gradientUnits="userSpaceOnUse">
<stop stop-color="white" stop-opacity="0.95"/>
<stop offset="1" stop-color="white" stop-opacity="0.58"/>
</linearGradient>
<linearGradient id="paint1_linear_161_1324" x1="15.287" y1="79.3997" x2="117.511" y2="2.25292" gradientUnits="userSpaceOnUse">
<stop stop-color="white" stop-opacity="0.8"/>
<stop offset="1" stop-color="white" stop-opacity="0.58"/>
</linearGradient>
</defs>
</svg>
