<svg width="150" height="150" viewBox="0 0 150 150" fill="none" xmlns="http://www.w3.org/2000/svg">
<g filter="url(#filter0_f_161_1324)">
<rect x="32" y="31" width="81.7699" height="77" rx="38.5" fill="#FFEF9A"/>
</g>
<g filter="url(#filter1_i_161_1324)">
<path d="M108.737 69.4999C108.737 89.6339 92.5679 105.956 72.6221 105.956C52.6763 105.956 36.5071 89.6339 36.5071 69.4999C36.5071 49.366 52.6763 33.0442 72.6221 33.0442C92.5679 33.0442 108.737 49.366 108.737 69.4999Z" fill="url(#paint0_linear_161_1324)"/>
</g>
<g filter="url(#filter2_d_161_1324)">
<path d="M130.687 98.4071C130.871 97.3811 130.967 96.3256 130.967 95.2483C130.967 85.17 122.575 77 112.223 77C104.527 77 97.9148 81.5153 95.0281 87.9732C92.6896 86.0075 89.655 84.8207 86.3388 84.8207C78.9446 84.8207 72.9504 90.7213 72.9504 98C72.9504 98.4053 72.969 98.8064 73.0054 99.2023C69.4489 100.898 67 104.457 67 108.572C67 114.331 71.7954 119 77.7107 119H128.289C134.205 119 139 114.331 139 108.572C139 103.616 135.448 99.4672 130.687 98.4071Z" fill="url(#paint1_linear_161_1324)"/>
</g>
<g filter="url(#filter3_d_161_1324)">
<path d="M56.1117 69.2908C56.242 68.5579 56.3099 67.804 56.3099 67.0345C56.3099 59.8357 50.3657 54 43.0331 54C37.5819 54 32.898 57.2252 30.8533 61.838C29.1968 60.4339 27.0473 59.5862 24.6983 59.5862C19.4608 59.5862 15.2149 63.8009 15.2149 69C15.2149 69.2895 15.228 69.576 15.2538 69.8588C12.7346 71.0702 11 73.6121 11 76.5517C11 80.6653 14.3967 84 18.5868 84H54.4132C58.6033 84 62 80.6653 62 76.5517C62 73.0114 59.484 70.048 56.1117 69.2908Z" fill="url(#paint2_linear_161_1324)"/>
</g>
<defs>
<filter id="filter0_f_161_1324" x="2" y="1" width="141.77" height="137" filterUnits="userSpaceOnUse" color-interpolation-filters="sRGB">
<feFlood flood-opacity="0" result="BackgroundImageFix"/>
<feBlend mode="normal" in="SourceGraphic" in2="BackgroundImageFix" result="shape"/>
<feGaussianBlur stdDeviation="15" result="effect1_foregroundBlur_161_1324"/>
</filter>
<filter id="filter1_i_161_1324" x="36.5071" y="33.0442" width="72.23" height="77.9116" filterUnits="userSpaceOnUse" color-interpolation-filters="sRGB">
<feFlood flood-opacity="0" result="BackgroundImageFix"/>
<feBlend mode="normal" in="SourceGraphic" in2="BackgroundImageFix" result="shape"/>
<feColorMatrix in="SourceAlpha" type="matrix" values="0 0 0 0 0 0 0 0 0 0 0 0 0 0 0 0 0 0 127 0" result="hardAlpha"/>
<feOffset dy="5"/>
<feGaussianBlur stdDeviation="9"/>
<feComposite in2="hardAlpha" operator="arithmetic" k2="-1" k3="1"/>
<feColorMatrix type="matrix" values="0 0 0 0 1 0 0 0 0 1 0 0 0 0 1 0 0 0 0.81 0"/>
<feBlend mode="normal" in2="shape" result="effect1_innerShadow_161_1324"/>
</filter>
<filter id="filter2_d_161_1324" x="57" y="67" width="92" height="62" filterUnits="userSpaceOnUse" color-interpolation-filters="sRGB">
<feFlood flood-opacity="0" result="BackgroundImageFix"/>
<feColorMatrix in="SourceAlpha" type="matrix" values="0 0 0 0 0 0 0 0 0 0 0 0 0 0 0 0 0 0 127 0" result="hardAlpha"/>
<feOffset/>
<feGaussianBlur stdDeviation="5"/>
<feColorMatrix type="matrix" values="0 0 0 0 0.891583 0 0 0 0 0.891583 0 0 0 0 0.891583 0 0 0 1 0"/>
<feBlend mode="normal" in2="BackgroundImageFix" result="effect1_dropShadow_161_1324"/>
<feBlend mode="normal" in="SourceGraphic" in2="effect1_dropShadow_161_1324" result="shape"/>
</filter>
<filter id="filter3_d_161_1324" x="1" y="44" width="71" height="50" filterUnits="userSpaceOnUse" color-interpolation-filters="sRGB">
<feFlood flood-opacity="0" result="BackgroundImageFix"/>
<feColorMatrix in="SourceAlpha" type="matrix" values="0 0 0 0 0 0 0 0 0 0 0 0 0 0 0 0 0 0 127 0" result="hardAlpha"/>
<feOffset/>
<feGaussianBlur stdDeviation="5"/>
<feColorMatrix type="matrix" values="0 0 0 0 0.891583 0 0 0 0 0.891583 0 0 0 0 0.891583 0 0 0 1 0"/>
<feBlend mode="normal" in2="BackgroundImageFix" result="effect1_dropShadow_161_1324"/>
<feBlend mode="normal" in="SourceGraphic" in2="effect1_dropShadow_161_1324" result="shape"/>
</filter>
<linearGradient id="paint0_linear_161_1324" x1="67.1363" y1="89.3429" x2="97.2743" y2="36.9794" gradientUnits="userSpaceOnUse">
<stop stop-color="#FF9900"/>
<stop offset="1" stop-color="#FFEE94"/>
</linearGradient>
<linearGradient id="paint1_linear_161_1324" x1="54.4967" y1="89.8798" x2="126.216" y2="35.2999" gradientUnits="userSpaceOnUse">
<stop stop-color="white" stop-opacity="0.95"/>
<stop offset="1" stop-color="white" stop-opacity="0.58"/>
</linearGradient>
<linearGradient id="paint2_linear_161_1324" x1="2.1435" y1="63.1998" x2="53.2556" y2="24.6265" gradientUnits="userSpaceOnUse">
<stop stop-color="white" stop-opacity="0.95"/>
<stop offset="1" stop-color="white" stop-opacity="0.58"/>
</linearGradient>
</defs>
</svg>
