<svg width="150" height="150" viewBox="0 0 150 150" fill="none" xmlns="http://www.w3.org/2000/svg">
<g clip-path="url(#clip0_161_1324)">
<g filter="url(#filter0_dd_161_1324)">
<path d="M64.1185 101.291C65.55 99.4539 68.4932 100.349 68.6591 102.673L69.0938 108.759C69.3378 112.177 66.0784 114.778 62.7999 113.78V113.78C59.5215 112.783 58.2621 108.808 60.3682 106.105L64.1185 101.291Z" fill="url(#paint0_linear_161_1324)"/>
<path d="M85.4187 101.291C86.8503 99.4539 89.7935 100.349 89.9594 102.673L90.3941 108.759C90.6381 112.177 87.3787 114.778 84.1002 113.78V113.78C80.8218 112.783 79.5624 108.808 81.6684 106.105L85.4187 101.291Z" fill="url(#paint1_linear_161_1324)"/>
<path d="M106.719 101.291C108.15 99.4539 111.094 100.349 111.259 102.673L111.694 108.759C111.938 112.177 108.679 114.778 105.4 113.78V113.78C102.122 112.783 100.862 108.808 102.968 106.105L106.719 101.291Z" fill="url(#paint2_linear_161_1324)"/>
</g>
<g filter="url(#filter1_dd_161_1324)">
<path d="M69.7388 118.152C71.1703 116.314 74.1136 117.21 74.2795 119.533L74.7141 125.619C74.9582 129.038 71.6987 131.638 68.4203 130.641V130.641C65.1418 129.643 63.8825 125.669 65.9885 122.965L69.7388 118.152Z" fill="url(#paint3_linear_161_1324)"/>
<path d="M87.7347 118.152C89.1662 116.314 92.1094 117.21 92.2753 119.533L92.71 125.619C92.9541 129.038 89.6946 131.638 86.4161 130.641V130.641C83.1377 129.643 81.8783 125.669 83.9844 122.965L87.7347 118.152Z" fill="url(#paint4_linear_161_1324)"/>
</g>
<g filter="url(#filter2_f_161_1324)">
<rect x="47" y="18" width="56.6814" height="53.375" rx="26.6875" fill="#FFEF9A"/>
</g>
<g filter="url(#filter3_i_161_1324)">
<path d="M100.193 44.6875C100.193 58.644 88.9846 69.9579 75.1586 69.9579C61.3325 69.9579 50.1243 58.644 50.1243 44.6875C50.1243 30.731 61.3325 19.417 75.1586 19.417C88.9846 19.417 100.193 30.731 100.193 44.6875Z" fill="url(#paint5_linear_161_1324)"/>
</g>
<g filter="url(#filter4_d_161_1324)">
<path d="M64.2272 64.7811C64.3549 64.0727 64.4215 63.3439 64.4215 62.6C64.4215 55.6412 58.5938 50 51.405 50C46.0607 50 41.4686 53.1177 39.464 57.5767C37.84 56.2195 35.7326 55.4 33.4298 55.4C28.2949 55.4 24.1322 59.4742 24.1322 64.5C24.1322 64.7799 24.1451 65.0568 24.1704 65.3302C21.7006 66.5012 20 68.9584 20 71.8C20 75.7765 23.3301 79 27.438 79H62.562C66.6699 79 70 75.7765 70 71.8C70 68.3777 67.5334 65.5131 64.2272 64.7811Z" fill="url(#paint6_linear_161_1324)"/>
</g>
<g filter="url(#filter5_d_161_1324)">
<path d="M121.803 74.8975C121.984 73.8958 122.079 72.8655 122.079 71.8138C122.079 61.9755 113.803 54 103.595 54C96.0062 54 89.4855 58.4078 86.6389 64.7119C84.3328 62.793 81.3404 61.6345 78.0703 61.6345C70.7787 61.6345 64.8678 67.3946 64.8678 74.5C64.8678 74.8957 64.8861 75.2872 64.922 75.6737C61.4149 77.3293 59 80.8032 59 84.8207C59 90.4426 63.7288 95 69.562 95H119.438C125.271 95 130 90.4426 130 84.8207C130 79.9823 126.497 75.9323 121.803 74.8975Z" fill="url(#paint7_linear_161_1324)"/>
</g>
</g>
<defs>
<filter id="filter0_dd_161_1324" x="-11.666" y="52.3081" width="164.373" height="126.688" filterUnits="userSpaceOnUse" color-interpolation-filters="sRGB">
<feFlood flood-opacity="0" result="BackgroundImageFix"/>
<feColorMatrix in="SourceAlpha" type="matrix" values="0 0 0 0 0 0 0 0 0 0 0 0 0 0 0 0 0 0 127 0" result="hardAlpha"/>
<feOffset dx="-21" dy="15"/>
<feGaussianBlur stdDeviation="25"/>
<feComposite in2="hardAlpha" operator="out"/>
<feColorMatrix type="matrix" values="0 0 0 0 0.113438 0 0 0 0 0.148981 0 0 0 0 0.275 0 0 0 0.25 0"/>
<feBlend mode="normal" in2="BackgroundImageFix" result="effect1_dropShadow_161_1324"/>
<feColorMatrix in="SourceAlpha" type="matrix" values="0 0 0 0 0 0 0 0 0 0 0 0 0 0 0 0 0 0 127 0" result="hardAlpha"/>
<feOffset dy="-7"/>
<feGaussianBlur stdDeviation="20.5"/>
<feComposite in2="hardAlpha" operator="out"/>
<feColorMatrix type="matrix" values="0 0 0 0 0.1375 0 0 0 0 0.74125 0 0 0 0 1 0 0 0 0.3 0"/>
<feBlend mode="normal" in2="effect1_dropShadow_161_1324" result="effect2_dropShadow_161_1324"/>
<feBlend mode="normal" in="SourceGraphic" in2="effect2_dropShadow_161_1324" result="shape"/>
</filter>
<filter id="filter1_dd_161_1324" x="-6.04565" y="69.1685" width="139.769" height="126.688" filterUnits="userSpaceOnUse" color-interpolation-filters="sRGB">
<feFlood flood-opacity="0" result="BackgroundImageFix"/>
<feColorMatrix in="SourceAlpha" type="matrix" values="0 0 0 0 0 0 0 0 0 0 0 0 0 0 0 0 0 0 127 0" result="hardAlpha"/>
<feOffset dx="-21" dy="15"/>
<feGaussianBlur stdDeviation="25"/>
<feComposite in2="hardAlpha" operator="out"/>
<feColorMatrix type="matrix" values="0 0 0 0 0.113438 0 0 0 0 0.148981 0 0 0 0 0.275 0 0 0 0.25 0"/>
<feBlend mode="normal" in2="BackgroundImageFix" result="effect1_dropShadow_161_1324"/>
<feColorMatrix in="SourceAlpha" type="matrix" values="0 0 0 0 0 0 0 0 0 0 0 0 0 0 0 0 0 0 127 0" result="hardAlpha"/>
<feOffset dy="-7"/>
<feGaussianBlur stdDeviation="20.5"/>
<feComposite in2="hardAlpha" operator="out"/>
<feColorMatrix type="matrix" values="0 0 0 0 0.1375 0 0 0 0 0.74125 0 0 0 0 1 0 0 0 0.3 0"/>
<feBlend mode="normal" in2="effect1_dropShadow_161_1324" result="effect2_dropShadow_161_1324"/>
<feBlend mode="normal" in="SourceGraphic" in2="effect2_dropShadow_161_1324" result="shape"/>
</filter>
<filter id="filter2_f_161_1324" x="35" y="6" width="80.6814" height="77.375" filterUnits="userSpaceOnUse" color-interpolation-filters="sRGB">
<feFlood flood-opacity="0" result="BackgroundImageFix"/>
<feBlend mode="normal" in="SourceGraphic" in2="BackgroundImageFix" result="shape"/>
<feGaussianBlur stdDeviation="6" result="effect1_foregroundBlur_161_1324"/>
</filter>
<filter id="filter3_i_161_1324" x="50.1243" y="19.417" width="50.0686" height="55.541" filterUnits="userSpaceOnUse" color-interpolation-filters="sRGB">
<feFlood flood-opacity="0" result="BackgroundImageFix"/>
<feBlend mode="normal" in="SourceGraphic" in2="BackgroundImageFix" result="shape"/>
<feColorMatrix in="SourceAlpha" type="matrix" values="0 0 0 0 0 0 0 0 0 0 0 0 0 0 0 0 0 0 127 0" result="hardAlpha"/>
<feOffset dy="5"/>
<feGaussianBlur stdDeviation="9"/>
<feComposite in2="hardAlpha" operator="arithmetic" k2="-1" k3="1"/>
<feColorMatrix type="matrix" values="0 0 0 0 1 0 0 0 0 1 0 0 0 0 1 0 0 0 0.81 0"/>
<feBlend mode="normal" in2="shape" result="effect1_innerShadow_161_1324"/>
</filter>
<filter id="filter4_d_161_1324" x="10" y="40" width="70" height="49" filterUnits="userSpaceOnUse" color-interpolation-filters="sRGB">
<feFlood flood-opacity="0" result="BackgroundImageFix"/>
<feColorMatrix in="SourceAlpha" type="matrix" values="0 0 0 0 0 0 0 0 0 0 0 0 0 0 0 0 0 0 127 0" result="hardAlpha"/>
<feOffset/>
<feGaussianBlur stdDeviation="5"/>
<feColorMatrix type="matrix" values="0 0 0 0 0.891583 0 0 0 0 0.891583 0 0 0 0 0.891583 0 0 0 1 0"/>
<feBlend mode="normal" in2="BackgroundImageFix" result="effect1_dropShadow_161_1324"/>
<feBlend mode="normal" in="SourceGraphic" in2="effect1_dropShadow_161_1324" result="shape"/>
</filter>
<filter id="filter5_d_161_1324" x="49" y="44" width="91" height="61" filterUnits="userSpaceOnUse" color-interpolation-filters="sRGB">
<feFlood flood-opacity="0" result="BackgroundImageFix"/>
<feColorMatrix in="SourceAlpha" type="matrix" values="0 0 0 0 0 0 0 0 0 0 0 0 0 0 0 0 0 0 127 0" result="hardAlpha"/>
<feOffset/>
<feGaussianBlur stdDeviation="5"/>
<feColorMatrix type="matrix" values="0 0 0 0 0.891583 0 0 0 0 0.891583 0 0 0 0 0.891583 0 0 0 1 0"/>
<feBlend mode="normal" in2="BackgroundImageFix" result="effect1_dropShadow_161_1324"/>
<feBlend mode="normal" in="SourceGraphic" in2="effect1_dropShadow_161_1324" result="shape"/>
</filter>
<linearGradient id="paint0_linear_161_1324" x1="68.1876" y1="96.0685" x2="62.7999" y2="113.78" gradientUnits="userSpaceOnUse">
<stop stop-color="#006AFF"/>
<stop offset="1" stop-color="#4CE7FC"/>
</linearGradient>
<linearGradient id="paint1_linear_161_1324" x1="89.4878" y1="96.0685" x2="84.1002" y2="113.78" gradientUnits="userSpaceOnUse">
<stop stop-color="#006AFF"/>
<stop offset="1" stop-color="#4CE7FC"/>
</linearGradient>
<linearGradient id="paint2_linear_161_1324" x1="110.788" y1="96.0685" x2="105.4" y2="113.78" gradientUnits="userSpaceOnUse">
<stop stop-color="#006AFF"/>
<stop offset="1" stop-color="#4CE7FC"/>
</linearGradient>
<linearGradient id="paint3_linear_161_1324" x1="73.8079" y1="112.929" x2="68.4203" y2="130.641" gradientUnits="userSpaceOnUse">
<stop stop-color="#006AFF"/>
<stop offset="1" stop-color="#4CE7FC"/>
</linearGradient>
<linearGradient id="paint4_linear_161_1324" x1="91.8038" y1="112.929" x2="86.4161" y2="130.641" gradientUnits="userSpaceOnUse">
<stop stop-color="#006AFF"/>
<stop offset="1" stop-color="#4CE7FC"/>
</linearGradient>
<linearGradient id="paint5_linear_161_1324" x1="71.3559" y1="58.4423" x2="92.247" y2="22.1448" gradientUnits="userSpaceOnUse">
<stop stop-color="#FF9900"/>
<stop offset="1" stop-color="#FFEE94"/>
</linearGradient>
<linearGradient id="paint6_linear_161_1324" x1="11.3172" y1="58.8932" x2="60.9124" y2="20.9331" gradientUnits="userSpaceOnUse">
<stop stop-color="white" stop-opacity="0.95"/>
<stop offset="1" stop-color="white" stop-opacity="0.58"/>
</linearGradient>
<linearGradient id="paint7_linear_161_1324" x1="46.6704" y1="66.5731" x2="116.867" y2="12.6086" gradientUnits="userSpaceOnUse">
<stop stop-color="white" stop-opacity="0.95"/>
<stop offset="1" stop-color="white" stop-opacity="0.58"/>
</linearGradient>
<clipPath id="clip0_161_1324">
<rect width="150" height="150" fill="white"/>
</clipPath>
</defs>
</svg>
