<svg width="150" height="150" viewBox="0 0 150 150" fill="none" xmlns="http://www.w3.org/2000/svg">
<g filter="url(#filter0_d_161_1324)">
<path d="M33.8947 60.3333C34.8628 60.3333 35.8092 60.0466 36.6141 59.5094C37.419 58.9722 38.0464 58.2087 38.4169 57.3153C38.7874 56.422 38.8843 55.439 38.6954 54.4907C38.5066 53.5423 38.0404 52.6712 37.3558 51.9875C36.6713 51.3038 35.7991 50.8381 34.8497 50.6495C33.9002 50.4609 32.916 50.5577 32.0216 50.9277C31.1272 51.2977 30.3628 51.9243 29.8249 52.7283C29.2871 53.5323 29 54.4775 29 55.4444C29 56.7411 29.5157 57.9846 30.4336 58.9014C31.3516 59.8183 32.5966 60.3333 33.8947 60.3333ZM53.4737 60.3333H87.7368C91.6313 60.3333 95.3663 58.7881 98.1202 56.0376C100.874 53.287 102.421 49.5565 102.421 45.6667C102.421 41.7768 100.874 38.0463 98.1202 35.2958C95.3663 32.5452 91.6313 31 87.7368 31C85.1619 31.0106 82.6331 31.6842 80.3947 32.9556C79.8339 33.2749 79.3418 33.702 78.9469 34.2122C78.5519 34.7223 78.2619 35.3054 78.0936 35.928C77.9253 36.5505 77.8819 37.2002 77.966 37.8396C78.0501 38.4789 78.26 39.0953 78.5837 39.6533C78.9075 40.2095 79.3381 40.6963 79.8507 41.0859C80.3633 41.4755 80.9478 41.7602 81.5708 41.9237C82.1938 42.0872 82.8429 42.1263 83.4811 42.0387C84.1192 41.9511 84.7337 41.7386 85.2895 41.4133C86.0425 41.0087 86.8818 40.7907 87.7368 40.7778C89.035 40.7778 90.28 41.2929 91.1979 42.2097C92.1159 43.1265 92.6316 44.3701 92.6316 45.6667C92.6316 46.9633 92.1159 48.2068 91.1979 49.1236C90.28 50.0405 89.035 50.5556 87.7368 50.5556H53.4737C52.1755 50.5556 50.9305 51.0706 50.0126 51.9875C49.0946 52.9043 48.5789 54.1478 48.5789 55.4444C48.5789 56.7411 49.0946 57.9846 50.0126 58.9014C50.9305 59.8183 52.1755 60.3333 53.4737 60.3333ZM33.8947 79.8889H68.1579C69.4561 79.8889 70.7011 79.3738 71.619 78.457C72.5369 77.5401 73.0526 76.2966 73.0526 75C73.0526 73.7034 72.5369 72.4599 71.619 71.543C70.7011 70.6262 69.4561 70.1111 68.1579 70.1111H33.8947C32.5966 70.1111 31.3516 70.6262 30.4336 71.543C29.5157 72.4599 29 73.7034 29 75C29 76.2966 29.5157 77.5401 30.4336 78.457C31.3516 79.3738 32.5966 79.8889 33.8947 79.8889ZM117.105 60.3333C118.073 60.3333 119.02 60.0466 119.825 59.5094C120.63 58.9722 121.257 58.2087 121.627 57.3153C121.998 56.422 122.095 55.439 121.906 54.4907C121.717 53.5423 121.251 52.6712 120.566 51.9875C119.882 51.3038 119.01 50.8381 118.06 50.6495C117.111 50.4609 116.127 50.5577 115.232 50.9277C114.338 51.2977 113.573 51.9243 113.035 52.7283C112.498 53.5323 112.211 54.4775 112.211 55.4444C112.211 56.7411 112.726 57.9846 113.644 58.9014C114.562 59.8183 115.807 60.3333 117.105 60.3333ZM107.316 70.1111H87.7368C86.4387 70.1111 85.1937 70.6262 84.2757 71.543C83.3578 72.4599 82.8421 73.7034 82.8421 75C82.8421 76.2966 83.3578 77.5401 84.2757 78.457C85.1937 79.3738 86.4387 79.8889 87.7368 79.8889H107.316C108.614 79.8889 109.859 80.404 110.777 81.3208C111.695 82.2377 112.211 83.4812 112.211 84.7778C112.211 86.0744 111.695 87.3179 110.777 88.2347C109.859 89.1516 108.614 89.6667 107.316 89.6667C106.018 89.6667 104.773 90.1817 103.855 91.0986C102.937 92.0154 102.421 93.2589 102.421 94.5556C102.421 95.8522 102.937 97.0957 103.855 98.0125C104.773 98.9294 106.018 99.4444 107.316 99.4444C111.21 99.4444 114.945 97.8992 117.699 95.1487C120.453 92.3981 122 88.6676 122 84.7778C122 80.8879 120.453 77.1574 117.699 74.4069C114.945 71.6563 111.21 70.1111 107.316 70.1111ZM77.9474 89.6667H58.3684C57.0703 89.6667 55.8253 90.1817 54.9073 91.0986C53.9894 92.0154 53.4737 93.2589 53.4737 94.5556C53.4737 95.8522 53.9894 97.0957 54.9073 98.0125C55.8253 98.9294 57.0703 99.4444 58.3684 99.4444H77.9474C79.2455 99.4444 80.4905 99.9595 81.4085 100.876C82.3264 101.793 82.8421 103.037 82.8421 104.333C82.8421 105.63 82.3264 106.873 81.4085 107.79C80.4905 108.707 79.2455 109.222 77.9474 109.222C77.0924 109.209 76.253 108.991 75.5 108.587C74.9429 108.233 74.3199 107.995 73.6685 107.888C73.0171 107.781 72.3508 107.807 71.7096 107.964C71.0684 108.121 70.4656 108.406 69.9375 108.801C69.4093 109.197 68.9667 109.695 68.6364 110.266C68.306 110.837 68.0947 111.468 68.0151 112.123C67.9355 112.778 67.9893 113.441 68.1732 114.075C68.3571 114.708 68.6674 115.297 69.0854 115.808C69.5033 116.318 70.0203 116.739 70.6053 117.044C72.8436 118.316 75.3724 118.989 77.9474 119C81.8419 119 85.5768 117.455 88.3307 114.704C91.0845 111.954 92.6316 108.223 92.6316 104.333C92.6316 100.443 91.0845 96.713 88.3307 93.9624C85.5768 91.2119 81.8419 89.6667 77.9474 89.6667ZM38.7895 89.6667H33.8947C32.5966 89.6667 31.3516 90.1817 30.4336 91.0986C29.5157 92.0154 29 93.2589 29 94.5556C29 95.8522 29.5157 97.0957 30.4336 98.0125C31.3516 98.9294 32.5966 99.4444 33.8947 99.4444H38.7895C40.0876 99.4444 41.3326 98.9294 42.2506 98.0125C43.1685 97.0957 43.6842 95.8522 43.6842 94.5556C43.6842 93.2589 43.1685 92.0154 42.2506 91.0986C41.3326 90.1817 40.0876 89.6667 38.7895 89.6667Z" fill="url(#paint0_linear_161_1324)"/>
</g>
<defs>
<filter id="filter0_d_161_1324" x="22" y="24" width="107" height="102" filterUnits="userSpaceOnUse" color-interpolation-filters="sRGB">
<feFlood flood-opacity="0" result="BackgroundImageFix"/>
<feColorMatrix in="SourceAlpha" type="matrix" values="0 0 0 0 0 0 0 0 0 0 0 0 0 0 0 0 0 0 127 0" result="hardAlpha"/>
<feOffset/>
<feGaussianBlur stdDeviation="3.5"/>
<feComposite in2="hardAlpha" operator="out"/>
<feColorMatrix type="matrix" values="0 0 0 0 0.663379 0 0 0 0 0.808932 0 0 0 0 0.80408 0 0 0 1 0"/>
<feBlend mode="normal" in2="BackgroundImageFix" result="effect1_dropShadow_161_1324"/>
<feBlend mode="normal" in="SourceGraphic" in2="effect1_dropShadow_161_1324" result="shape"/>
</filter>
<linearGradient id="paint0_linear_161_1324" x1="28.3097" y1="77.0579" x2="109.852" y2="78.0738" gradientUnits="userSpaceOnUse">
<stop stop-color="#CBE9FF"/>
<stop offset="1" stop-color="white"/>
</linearGradient>
</defs>
</svg>
